<svg width="44" height="44" viewBox="0 0 44 44" fill="none" xmlns="http://www.w3.org/2000/svg">
<path opacity="0.8" d="M13.1368 8.66822C13.8066 8.80663 14.3399 9.2566 14.6713 9.85109L15.7269 11.7449C16.1157 12.4424 16.4429 13.0294 16.6566 13.5397C16.8833 14.081 17.0179 14.6147 16.9564 15.2049C16.8948 15.795 16.653 16.2896 16.3195 16.7724C16.0051 17.2277 15.5638 17.7345 15.0395 18.3368L13.4877 20.1192C13.2097 20.4386 13.0706 20.5982 13.0579 20.7978C13.0452 20.9975 13.1592 21.168 13.3871 21.5089C15.3295 24.4152 17.9474 27.0339 20.8559 28.978C21.197 29.206 21.3674 29.3199 21.567 29.3072C21.7666 29.2945 21.9264 29.1554 22.2457 28.8773L24.0283 27.3256C24.6305 26.8012 25.1374 26.36 25.5927 26.0456C26.0754 25.7121 26.57 25.4702 27.1601 25.4087C27.7503 25.3471 28.2841 25.4817 28.8254 25.7084C29.3356 25.9221 29.9226 26.2493 30.62 26.638L32.514 27.6938C33.1084 28.0251 33.5585 28.5585 33.6969 29.2282C33.8367 29.9049 33.6304 30.5851 33.1747 31.1442C31.5215 33.1725 28.8727 34.4642 26.094 33.9036C24.386 33.559 22.7007 32.985 20.6625 31.8161C16.567 29.4673 12.895 25.7933 10.549 21.7026C9.38004 19.6644 8.80602 17.9791 8.46147 16.2711C7.90093 13.4923 9.19246 10.8436 11.2209 9.1903C11.7799 8.73466 12.4601 8.52835 13.1368 8.66822Z" fill="#EC009D"/>
<g filter="url(#filter0_f_4073_284)">
<circle cx="23.9668" cy="22.9668" r="6" fill="#980884"/>
</g>
<defs>
<filter id="filter0_f_4073_284" x="0.366796" y="-0.633204" width="47.2" height="47.2" filterUnits="userSpaceOnUse" color-interpolation-filters="sRGB">
<feFlood flood-opacity="0" result="BackgroundImageFix"/>
<feBlend mode="normal" in="SourceGraphic" in2="BackgroundImageFix" result="shape"/>
<feGaussianBlur stdDeviation="8.8" result="effect1_foregroundBlur_4073_284"/>
</filter>
</defs>
</svg>
