<svg width="29" height="29" viewBox="0 0 29 29" fill="none" xmlns="http://www.w3.org/2000/svg">
<path opacity="0.4" d="M26.8857 14.2449C26.8857 16.2824 26.8857 17.8966 26.723 19.1724C26.5556 20.4855 26.204 21.5559 25.4167 22.4389C25.183 22.7011 24.9261 22.9428 24.6489 23.1616C23.7231 23.8928 22.6094 24.2163 21.2359 24.3715C19.8902 24.5234 18.1835 24.5234 16.01 24.5234H12.3522C10.1788 24.5234 8.47194 24.5234 7.12634 24.3715C5.75288 24.2163 4.63911 23.8928 3.71331 23.1616C3.43615 22.9428 3.17918 22.701 2.94554 22.4389C2.15825 21.5559 1.80667 20.4855 1.63922 19.1724C1.47654 17.8966 1.47655 16.2823 1.47656 14.2448V14.1202C1.47656 13.4398 1.47655 12.8065 1.48261 12.2173C1.48596 11.8915 1.48764 11.7286 1.59125 11.626C1.69487 11.5234 1.85901 11.5234 2.1873 11.5234H26.1749C26.5032 11.5234 26.6674 11.5234 26.771 11.626C26.8745 11.7286 26.8763 11.8915 26.8796 12.2173C26.8857 12.8064 26.8857 13.4398 26.8857 14.1202V14.2449Z" fill="#94E52F"/>
<path d="M16.0126 3.8418C18.1859 3.84179 19.8927 3.84177 21.2383 3.99378C22.6118 4.14893 23.7256 4.47244 24.6514 5.20359C24.9286 5.42247 25.1855 5.66422 25.4191 5.92629C26.2065 6.80935 26.5581 7.8797 26.7255 9.19289C26.7448 9.34399 26.7544 9.41954 26.7371 9.48591C26.7093 9.59197 26.628 9.68441 26.5263 9.7253C26.4627 9.75089 26.383 9.75089 26.2237 9.75089H2.14351C1.98423 9.75089 1.90459 9.75089 1.84095 9.7253C1.73923 9.68441 1.65783 9.59198 1.63013 9.48591C1.61281 9.41954 1.62244 9.34399 1.64171 9.19289C1.80917 7.8797 2.16075 6.80935 2.94804 5.92629C3.18168 5.66422 3.43865 5.42247 3.71581 5.20359C4.64162 4.47244 5.75538 4.14893 7.12884 3.99378C8.47444 3.84177 10.1813 3.84179 12.3547 3.8418H16.0126Z" fill="#94E52F"/>
<path fill-rule="evenodd" clip-rule="evenodd" d="M12.1133 18.9098C12.1133 18.4203 12.5101 18.0234 12.9996 18.0234H14.7724C15.2619 18.0234 15.6587 18.4203 15.6587 18.9098C15.6587 19.3993 15.2619 19.7962 14.7724 19.7962H12.9996C12.5101 19.7962 12.1133 19.3993 12.1133 18.9098Z" fill="#94E52F"/>
<path fill-rule="evenodd" clip-rule="evenodd" d="M17.4316 18.9098C17.4316 18.4203 17.8285 18.0234 18.318 18.0234H22.4544C22.9439 18.0234 23.3407 18.4203 23.3407 18.9098C23.3407 19.3993 22.9439 19.7962 22.4544 19.7962H18.318C17.8285 19.7962 17.4316 19.3993 17.4316 18.9098Z" fill="#94E52F"/>
</svg>
