<svg width="197" height="32" viewBox="0 0 197 32" fill="none" xmlns="http://www.w3.org/2000/svg">
<path fill-rule="evenodd" clip-rule="evenodd" d="M16.5 2.66602H4.5V11.5549V20.4438H16.5V29.3327H28.5V20.4438V11.5549H16.5V2.66602Z" fill="url(#paint0_linear_173_20458)"/>
<path d="M42.276 25V22.024H45.924V12.328H42.276V9.352H53.124V12.328H49.476V22.024H53.124V25H42.276ZM60.7646 25.288C59.2606 25.288 58.0446 24.736 57.1166 23.632C56.2046 22.512 55.7486 20.984 55.7486 19.048C55.7486 17.752 55.9886 16.64 56.4686 15.712C56.9646 14.784 57.6046 14.072 58.3886 13.576C59.1726 13.064 59.9886 12.808 60.8366 12.808C61.4926 12.808 62.0606 12.92 62.5406 13.144C63.0206 13.368 63.4526 13.68 63.8366 14.08H63.9326L63.7646 12.232V8.176H67.2926V25H64.4126L64.1486 23.776H64.0766C63.6446 24.208 63.1326 24.568 62.5406 24.856C61.9646 25.144 61.3726 25.288 60.7646 25.288ZM61.6766 22.408C62.0766 22.408 62.4446 22.328 62.7806 22.168C63.1326 21.992 63.4606 21.704 63.7646 21.304V16.48C63.4446 16.192 63.1166 15.992 62.7806 15.88C62.4606 15.752 62.1246 15.688 61.7726 15.688C61.3406 15.688 60.9406 15.808 60.5726 16.048C60.2046 16.288 59.9086 16.656 59.6846 17.152C59.4766 17.632 59.3726 18.248 59.3726 19C59.3726 20.168 59.5726 21.032 59.9726 21.592C60.3726 22.136 60.9406 22.408 61.6766 22.408ZM76.6612 25.288C75.4292 25.288 74.3092 25.048 73.3012 24.568C72.3092 24.072 71.5172 23.36 70.9252 22.432C70.3492 21.488 70.0612 20.36 70.0612 19.048C70.0612 17.752 70.3572 16.64 70.9492 15.712C71.5412 14.768 72.3092 14.048 73.2532 13.552C74.1972 13.056 75.1972 12.808 76.2532 12.808C77.4852 12.808 78.5172 13.064 79.3492 13.576C80.1812 14.072 80.8052 14.752 81.2213 15.616C81.6533 16.464 81.8693 17.432 81.8693 18.52C81.8693 18.84 81.8453 19.152 81.7972 19.456C81.7653 19.744 81.7333 19.96 81.7012 20.104H72.6772V17.728H79.3252L78.7732 18.4C78.7732 17.44 78.5652 16.72 78.1492 16.24C77.7492 15.744 77.1572 15.496 76.3732 15.496C75.7972 15.496 75.2932 15.624 74.8612 15.88C74.4292 16.136 74.0932 16.528 73.8532 17.056C73.6132 17.584 73.4932 18.248 73.4932 19.048C73.4932 19.864 73.6372 20.536 73.9252 21.064C74.2132 21.576 74.6292 21.96 75.1732 22.216C75.7172 22.472 76.3732 22.6 77.1412 22.6C77.6852 22.6 78.1972 22.528 78.6772 22.384C79.1732 22.24 79.6852 22.032 80.2132 21.76L81.3892 23.896C80.7012 24.328 79.9412 24.672 79.1092 24.928C78.2772 25.168 77.4612 25.288 76.6612 25.288ZM84.5899 25V13.096H87.4699L87.7339 14.68H87.8299C88.3419 14.168 88.9259 13.728 89.5819 13.36C90.2539 12.992 91.0379 12.808 91.9339 12.808C93.2779 12.808 94.2619 13.24 94.8859 14.104C95.5099 14.968 95.8219 16.152 95.8219 17.656V25H92.2939V18.112C92.2939 17.312 92.1579 16.728 91.8859 16.36C91.6299 15.992 91.1819 15.808 90.5419 15.808C90.0619 15.808 89.6379 15.92 89.2699 16.144C88.9179 16.352 88.5339 16.656 88.1179 17.056V25H84.5899ZM106.294 25.288C105.03 25.288 104.022 25.072 103.27 24.64C102.534 24.192 101.998 23.576 101.662 22.792C101.326 22.008 101.158 21.096 101.158 20.056V15.856H98.1825V13.24L101.326 13.096L101.782 9.448H104.686V13.096H109.726V15.856H104.686V20.032C104.686 20.624 104.774 21.104 104.95 21.472C105.126 21.84 105.398 22.112 105.766 22.288C106.134 22.448 106.606 22.528 107.182 22.528C107.646 22.528 108.07 22.488 108.454 22.408C108.838 22.328 109.206 22.224 109.558 22.096L110.182 24.64C109.654 24.8 109.07 24.944 108.43 25.072C107.806 25.216 107.094 25.288 106.294 25.288ZM117.775 25V15.856H112.975V13.096H121.303V25H117.775ZM119.383 11.224C118.711 11.224 118.151 11.032 117.703 10.648C117.255 10.248 117.031 9.728 117.031 9.088C117.031 8.432 117.255 7.904 117.703 7.504C118.151 7.088 118.711 6.88 119.383 6.88C120.071 6.88 120.631 7.088 121.063 7.504C121.511 7.904 121.735 8.432 121.735 9.088C121.735 9.728 121.511 10.248 121.063 10.648C120.631 11.032 120.071 11.224 119.383 11.224ZM134.536 25.288C133.272 25.288 132.264 25.072 131.512 24.64C130.776 24.192 130.24 23.576 129.904 22.792C129.568 22.008 129.4 21.096 129.4 20.056V15.856H126.424V13.24L129.568 13.096L130.024 9.448H132.928V13.096H137.968V15.856H132.928V20.032C132.928 20.624 133.016 21.104 133.192 21.472C133.368 21.84 133.64 22.112 134.008 22.288C134.376 22.448 134.848 22.528 135.424 22.528C135.888 22.528 136.312 22.488 136.696 22.408C137.08 22.328 137.448 22.224 137.8 22.096L138.424 24.64C137.896 24.8 137.312 24.944 136.672 25.072C136.048 25.216 135.336 25.288 134.536 25.288ZM142.776 29.656C142.424 29.656 142.096 29.632 141.792 29.584C141.488 29.536 141.208 29.48 140.952 29.416L141.576 26.728C141.736 26.776 141.896 26.808 142.056 26.824C142.216 26.856 142.368 26.872 142.512 26.872C143.2 26.872 143.736 26.72 144.12 26.416C144.52 26.128 144.816 25.76 145.008 25.312L145.248 24.688L140.088 13.096H143.592L145.584 18.208C145.808 18.768 146.016 19.352 146.208 19.96C146.4 20.552 146.592 21.16 146.784 21.784H146.88C147.04 21.192 147.216 20.592 147.408 19.984C147.6 19.376 147.784 18.784 147.96 18.208L149.712 13.096H153.048L148.344 25.12C147.976 26.112 147.544 26.944 147.048 27.616C146.568 28.288 145.984 28.792 145.296 29.128C144.624 29.48 143.784 29.656 142.776 29.656ZM155.001 25V9.352H158.529V15.4H162.801V9.352H166.329V25H162.801V18.472H158.529V25H155.001ZM172.938 25.288C171.578 25.288 170.594 24.856 169.986 23.992C169.378 23.128 169.074 21.944 169.074 20.44V13.096H172.602V19.984C172.602 20.784 172.722 21.368 172.962 21.736C173.218 22.104 173.674 22.288 174.33 22.288C174.778 22.288 175.178 22.192 175.53 22C175.882 21.808 176.258 21.448 176.658 20.92V13.096H180.186V25H177.306L177.042 23.296H176.946C176.418 23.888 175.834 24.368 175.194 24.736C174.554 25.104 173.802 25.288 172.938 25.288ZM189.818 25.288C189.274 25.288 188.714 25.152 188.138 24.88C187.578 24.608 187.058 24.216 186.578 23.704H186.482L186.194 25H183.434V8.176H186.962V12.304L186.842 14.176H186.914C187.378 13.744 187.89 13.408 188.45 13.168C189.026 12.928 189.602 12.808 190.178 12.808C191.186 12.808 192.042 13.056 192.746 13.552C193.466 14.048 194.018 14.752 194.402 15.664C194.786 16.56 194.978 17.616 194.978 18.832C194.978 20.192 194.73 21.36 194.234 22.336C193.754 23.296 193.122 24.032 192.338 24.544C191.554 25.04 190.714 25.288 189.818 25.288ZM189.026 22.408C189.458 22.408 189.85 22.288 190.202 22.048C190.554 21.808 190.834 21.432 191.042 20.92C191.25 20.392 191.354 19.72 191.354 18.904C191.354 18.184 191.274 17.592 191.114 17.128C190.954 16.648 190.714 16.288 190.394 16.048C190.09 15.808 189.682 15.688 189.17 15.688C188.786 15.688 188.41 15.776 188.042 15.952C187.69 16.112 187.33 16.392 186.962 16.792V21.616C187.298 21.888 187.642 22.088 187.994 22.216C188.362 22.344 188.706 22.408 189.026 22.408Z" fill="#CAD1E9"/>
<defs>
<linearGradient id="paint0_linear_173_20458" x1="16.5" y1="2.66602" x2="16.5" y2="29.3327" gradientUnits="userSpaceOnUse">
<stop stop-color="#B67EFD"/>
<stop offset="0.97" stop-color="#FFAC8E"/>
<stop offset="1" stop-color="#CAD1E9" stop-opacity="0"/>
</linearGradient>
</defs>
</svg>
