<svg width="49" height="48" viewBox="0 0 49 48" fill="none" xmlns="http://www.w3.org/2000/svg">
<path d="M12.5305 20.6332C12.5675 18.9012 12.598 17.4702 12.7996 16.3105L15.4571 17.6781C15.3381 17.6361 15.2467 17.6326 15.1642 17.6781C14.9907 17.7737 14.9793 18.0134 14.9564 18.4926C14.9256 19.1385 14.9089 19.8873 14.89 20.7726C14.8655 21.9184 14.8655 22.5111 14.89 23.657C14.9294 25.5006 14.9592 26.7521 15.1267 27.7153C15.2844 28.6222 15.5475 29.1612 15.9976 29.6124C16.443 30.0589 16.9892 30.3265 17.9267 30.4896C18.9173 30.6619 20.2093 30.6973 22.1037 30.7449C24.3755 30.8019 26.0532 30.8019 28.325 30.7448C30.2193 30.6973 31.5114 30.6619 32.502 30.4896C33.4394 30.3265 33.9856 30.0589 34.4311 29.6124C34.8811 29.1612 35.1443 28.6222 35.302 27.7153C35.4694 26.7521 35.4993 25.5005 35.5387 23.6568C35.5631 22.5111 35.5631 21.9184 35.5387 20.7726C35.5198 19.8872 35.503 19.1383 35.4723 18.4923C35.4493 18.0131 35.4379 17.7735 35.2644 17.6778C35.1818 17.6323 35.0902 17.6358 34.9708 17.6781L37.629 16.3105C37.8306 17.4702 37.8612 18.9012 37.8981 20.6332L37.8999 20.7223C37.9251 21.9016 37.9251 22.5278 37.8999 23.7072L37.8981 23.7963C37.8612 25.5282 37.8307 26.9593 37.629 28.1189C37.4142 29.3545 36.9901 30.3892 36.1043 31.2772C35.2139 32.1698 34.1627 32.5952 32.9072 32.8136C31.7242 33.0193 30.2565 33.0561 28.4727 33.1009L28.3843 33.103C26.0729 33.161 24.3557 33.161 22.0443 33.1031L21.9559 33.1009C20.1721 33.0561 18.7044 33.0193 17.5215 32.8136C16.2659 32.5952 15.2147 32.1698 14.3243 31.2772C13.4386 30.3892 13.0145 29.3546 12.7996 28.1189C12.598 26.9593 12.5675 25.5282 12.5306 23.7963L12.5287 23.7072C12.5035 22.5278 12.5035 21.9016 12.5286 20.7223L12.5305 20.6332Z" fill="#F9A876"/>
<path opacity="0.4" d="M22.0455 11.3267C24.3568 11.2687 26.0741 11.2687 28.3854 11.3267L28.4739 11.3289C30.2577 11.3736 31.7254 11.4104 32.9084 11.6162C33.346 11.6923 33.7587 11.7936 34.1486 11.931C34.2521 11.9553 34.3516 11.9935 34.4443 12.0442C35.054 12.2968 35.6052 12.6509 36.1055 13.1525C36.9912 14.0405 37.4153 15.0752 37.6302 16.3108L34.9719 17.6784C34.8406 17.7249 34.6757 17.8184 34.4521 17.9451L29.4461 20.7815C27.9102 21.6518 26.6112 22.215 25.2152 22.215C23.8192 22.215 22.5203 21.6518 20.9844 20.7815L15.9789 17.9453C15.7549 17.8184 15.5897 17.7248 15.4582 17.6784L12.8008 16.3108C13.0156 15.0752 13.4397 14.0405 14.3254 13.1525C15.2158 12.2599 16.2671 11.8346 17.5226 11.6162C18.7056 11.4104 20.1732 11.3736 21.957 11.3289L22.0455 11.3267Z" fill="#F9A876"/>
<g filter="url(#filter0_f_4073_557)">
<circle cx="24.5" cy="24.5" r="6.5" fill="#F9A876"/>
</g>
<defs>
<filter id="filter0_f_4073_557" x="0.4" y="0.4" width="48.2" height="48.2" filterUnits="userSpaceOnUse" color-interpolation-filters="sRGB">
<feFlood flood-opacity="0" result="BackgroundImageFix"/>
<feBlend mode="normal" in="SourceGraphic" in2="BackgroundImageFix" result="shape"/>
<feGaussianBlur stdDeviation="8.8" result="effect1_foregroundBlur_4073_557"/>
</filter>
</defs>
</svg>
