<svg width="29" height="29" viewBox="0 0 29 29" fill="none" xmlns="http://www.w3.org/2000/svg">
<path d="M1.49734 13.1C1.53427 11.368 1.56478 9.93697 1.76641 8.77734L4.42386 10.1449C4.30486 10.1028 4.21345 10.0994 4.13102 10.1449C3.95748 10.2405 3.94605 10.4802 3.9232 10.9594C3.89239 11.6053 3.87569 12.3541 3.85678 13.2394C3.83231 14.3852 3.83233 14.9779 3.8568 16.1238C3.89617 17.9674 3.92601 19.2189 4.09348 20.1821C4.25119 21.089 4.51428 21.628 4.96437 22.0792C5.40977 22.5257 5.95597 22.7933 6.89348 22.9564C7.88407 23.1287 9.17607 23.1641 11.0705 23.2117C13.3423 23.2687 15.02 23.2687 17.2918 23.2116C19.1861 23.1641 20.4782 23.1287 21.4688 22.9564C22.4062 22.7933 22.9524 22.5257 23.3979 22.0792C23.8479 21.628 24.1111 21.089 24.2688 20.1821C24.4362 19.2189 24.4661 17.9673 24.5055 16.1236C24.5299 14.9779 24.5299 14.3852 24.5055 13.2394C24.4866 12.354 24.4698 11.6051 24.4391 10.9591C24.4161 10.4799 24.4047 10.2403 24.2312 10.1446C24.1486 10.0991 24.057 10.1026 23.9376 10.1449L26.5958 8.77734C26.7974 9.93696 26.828 11.368 26.8649 13.1L26.8667 13.1891C26.8919 14.3684 26.8919 14.9946 26.8667 16.174L26.8649 16.2631C26.828 17.995 26.7975 19.4261 26.5958 20.5857C26.381 21.8213 25.9569 22.856 25.0711 23.744C24.1807 24.6366 23.1295 25.062 21.874 25.2804C20.691 25.4861 19.2233 25.5229 17.4395 25.5677L17.3511 25.5698C15.0397 25.6278 13.3225 25.6278 11.0111 25.5699L10.9227 25.5677C9.13888 25.5229 7.6712 25.4861 6.48825 25.2804C5.23272 25.062 4.18148 24.6366 3.29109 23.744C2.40538 22.856 1.98128 21.8214 1.76643 20.5857C1.5648 19.4261 1.53428 17.995 1.49736 16.2631L1.49546 16.174C1.47027 14.9946 1.47026 14.3684 1.49543 13.1891L1.49734 13.1Z" fill="#F9A876"/>
<path opacity="0.4" d="M11.0123 3.7935C13.3236 3.73551 15.0409 3.73549 17.3522 3.7935L17.4407 3.79571C19.2245 3.84043 20.6922 3.87722 21.8752 4.08298C22.3128 4.15909 22.7255 4.26035 23.1154 4.39776C23.2189 4.42213 23.3184 4.46032 23.4111 4.51096C24.0208 4.76364 24.572 5.11769 25.0723 5.61932C25.958 6.50731 26.3821 7.54198 26.597 8.77764L23.9387 10.1452C23.8074 10.1917 23.6425 10.2852 23.4189 10.4119L18.4129 13.2483C16.877 14.1186 15.578 14.6818 14.182 14.6818C12.786 14.6818 11.4871 14.1186 9.9512 13.2483L4.94572 10.4121C4.72173 10.2852 4.55654 10.1916 4.42504 10.1452L1.76758 8.77764C1.98243 7.54198 2.40653 6.50731 3.29224 5.61932C4.18264 4.72666 5.23387 4.30136 6.4894 4.08297C7.67237 3.87722 9.14004 3.84043 10.9238 3.79572L11.0123 3.7935Z" fill="#F9A876"/>
</svg>
