<svg width="29" height="29" viewBox="0 0 29 29" fill="none" xmlns="http://www.w3.org/2000/svg">
<path opacity="0.4" d="M14.5004 14.8027C15.8964 14.8027 17.1958 15.4668 18.7408 16.5193L26.636 21.8979C26.9619 22.12 27.1068 22.5275 26.9943 22.9055C26.7443 23.7456 26.3461 24.4561 25.7165 25.0812C24.8618 25.9298 23.8512 26.3401 22.6089 26.554C21.4212 26.7585 19.9391 26.7951 18.0958 26.8406L18.026 26.8423C15.6687 26.9007 13.3321 26.9007 10.9747 26.8423L10.9051 26.8406C9.06177 26.7951 7.5796 26.7585 6.39195 26.554C5.14958 26.3401 4.13898 25.9298 3.28425 25.0812C2.65463 24.4561 2.25652 23.7456 2.00648 22.9055C1.89396 22.5275 2.03886 22.12 2.36483 21.8979L10.2601 16.5193C11.805 15.4668 13.1045 14.8027 14.5004 14.8027Z" fill="#4770FF"/>
<g opacity="0.4">
<path d="M2.13719 10.7413C1.83666 10.8853 1.63939 11.1825 1.6235 11.5154L1.59302 12.1536C1.51233 13.9871 1.49168 15.7851 1.53116 17.6009L1.5341 17.7364C1.55382 18.6461 1.57165 19.4693 1.6142 20.2151L9.03552 15.1592C8.74744 14.9672 8.44348 14.7462 8.10557 14.5L3.06232 10.8261C2.79299 10.6299 2.4377 10.5973 2.13719 10.7413Z" fill="#4770FF"/>
<path d="M26.8652 10.7413C27.1657 10.8853 27.363 11.1825 27.379 11.5154L27.4094 12.1536C27.4901 13.9871 27.5107 15.7851 27.4713 17.6009L27.4683 17.7364C27.4486 18.6461 27.4308 19.4694 27.3883 20.2152L19.9668 15.1593C20.2549 14.9672 20.5589 14.7462 20.8969 14.5L25.9401 10.8261C26.2094 10.6299 26.5647 10.5973 26.8652 10.7413Z" fill="#4770FF"/>
</g>
<path d="M11.8453 2.84977C12.7469 2.38895 13.579 2.11523 14.5006 2.11523C15.4221 2.11523 16.2543 2.38895 17.1559 2.84977C18.028 3.2955 19.0321 3.95302 20.2891 4.77619L25.0225 7.87548C25.538 8.21215 25.9893 8.50693 26.3527 8.84426C25.8281 8.86752 25.3119 9.04248 24.8722 9.36287L19.8289 13.0368C19.4845 13.2876 19.2118 13.4855 18.9606 13.653C18.7487 13.7943 18.5724 13.9761 18.4392 14.1844C17.2335 13.4941 15.9438 12.9902 14.5011 12.9902C13.058 12.9902 11.7679 13.4945 10.5619 14.185C10.4286 13.9764 10.2521 13.7944 10.04 13.6529C9.7889 13.4855 9.51612 13.2876 9.17181 13.0368L4.12855 9.36287C3.68886 9.04256 3.17281 8.86762 2.64844 8.84429C3.01186 8.50694 3.46319 8.21215 3.97866 7.87548L8.712 4.77619C9.96912 3.95301 10.9732 3.2955 11.8453 2.84977Z" fill="#4770FF"/>
</svg>
