<svg width="25" height="26" viewBox="0 0 25 26" fill="none" xmlns="http://www.w3.org/2000/svg">
<path fill-rule="evenodd" clip-rule="evenodd" d="M7.45492 12.5877C7.80107 12.2416 8.36228 12.2416 8.70843 12.5877L9.26349 13.1427L9.81856 12.5877C10.1647 12.2416 10.7259 12.2416 11.0721 12.5877C11.4182 12.9339 11.4182 13.495 11.0721 13.8412L10.517 14.3963L11.0721 14.9514C11.4182 15.2975 11.4182 15.8587 11.0721 16.2048C10.7259 16.551 10.1647 16.551 9.81856 16.2048L9.26349 15.6498L8.70843 16.2048C8.36228 16.551 7.80107 16.551 7.45492 16.2048C7.10878 15.8587 7.10878 15.2975 7.45492 14.9514L8.00998 14.3963L7.45492 13.8412C7.10878 13.495 7.10878 12.9339 7.45492 12.5877Z" fill="#78B8FA"/>
<path fill-rule="evenodd" clip-rule="evenodd" d="M1.54476 12.5877C1.89092 12.2416 2.45213 12.2416 2.79827 12.5877L3.35333 13.1427L3.9084 12.5877C4.25455 12.2416 4.81576 12.2416 5.16191 12.5877C5.50806 12.9339 5.50806 13.495 5.16191 13.8412L4.60684 14.3963L5.16191 14.9514C5.50806 15.2975 5.50806 15.8587 5.16191 16.2048C4.81576 16.551 4.25455 16.551 3.9084 16.2048L3.35333 15.6498L2.79827 16.2048C2.45213 16.551 1.89092 16.551 1.54476 16.2048C1.19862 15.8587 1.19862 15.2975 1.54476 14.9514L2.09983 14.3963L1.54476 13.8412C1.19862 13.495 1.19862 12.9339 1.54476 12.5877Z" fill="#78B8FA"/>
<path fill-rule="evenodd" clip-rule="evenodd" d="M13.3631 12.5877C13.7093 12.2416 14.2705 12.2416 14.6167 12.5877L15.1718 13.1427L15.7268 12.5877C16.0729 12.2416 16.6342 12.2416 16.9803 12.5877C17.3265 12.9339 17.3265 13.495 16.9803 13.8412L16.4252 14.3963L16.9803 14.9514C17.3265 15.2975 17.3265 15.8587 16.9803 16.2048C16.6342 16.551 16.0729 16.551 15.7268 16.2048L15.1718 15.6498L14.6167 16.2048C14.2705 16.551 13.7093 16.551 13.3631 16.2048C13.017 15.8587 13.017 15.2975 13.3631 14.9514L13.9182 14.3963L13.3631 13.8412C13.017 13.495 13.017 12.9339 13.3631 12.5877Z" fill="#78B8FA"/>
<path fill-rule="evenodd" clip-rule="evenodd" d="M19.2733 12.5877C19.6194 12.2416 20.1807 12.2416 20.5268 12.5877L21.0819 13.1427L21.6369 12.5877C21.9831 12.2416 22.5443 12.2416 22.8905 12.5877C23.2366 12.9339 23.2366 13.495 22.8905 13.8412L22.3354 14.3963L22.8905 14.9514C23.2366 15.2975 23.2366 15.8587 22.8905 16.2048C22.5443 16.551 21.9831 16.551 21.6369 16.2048L21.0819 15.6498L20.5268 16.2048C20.1807 16.551 19.6194 16.551 19.2733 16.2048C18.9271 15.8587 18.9271 15.2975 19.2733 14.9514L19.8284 14.3963L19.2733 13.8412C18.9271 13.495 18.9271 12.9339 19.2733 12.5877Z" fill="#78B8FA"/>
<g opacity="0.4">
<path d="M7.2024 1.91087C8.61129 1.18097 10.2266 0.509766 12.2136 0.509766C14.2006 0.509766 15.8166 1.18098 17.2262 1.91086C17.652 2.13136 18.0477 2.34949 18.4258 2.55795C19.3512 3.06814 20.1715 3.52038 21.072 3.80756C21.6007 3.97612 22.0688 4.12543 22.4009 4.25549C22.7134 4.3779 23.0847 4.54566 23.3482 4.83851C23.5851 5.10157 23.7067 5.39693 23.7873 5.67944C23.8605 5.93588 23.9231 6.28312 23.9831 6.61622C24.1985 7.81054 24.3131 8.99561 24.3267 10.1578C24.3304 10.4793 24.3323 10.64 24.2282 10.7454C24.1241 10.8507 23.9593 10.8507 23.6299 10.8507H0.801535C0.472068 10.8507 0.307323 10.8507 0.20324 10.7454C0.0991455 10.6401 0.101013 10.4794 0.104747 10.1579C0.11822 8.9957 0.232561 7.81061 0.447912 6.61628C0.507925 6.28322 0.57049 5.93606 0.64368 5.67963C0.724304 5.39714 0.845901 5.10181 1.0826 4.83875C1.34611 4.54591 1.71749 4.3781 2.02998 4.25566C2.36198 4.12555 2.83026 3.97616 3.35886 3.8075C4.2589 3.52033 5.07845 3.06824 6.00318 2.55812C6.38111 2.34963 6.77665 2.13143 7.2024 1.91087Z" fill="#78B8FA"/>
<path d="M14.439 25.408C13.671 25.7021 13.1056 25.9187 12.218 25.9187C11.3303 25.9187 10.7648 25.7021 9.99687 25.408C6.49483 24.0672 3.91978 21.7828 2.27616 18.9393C2.02829 18.5105 1.90437 18.2961 2.0067 18.1188C2.10903 17.9414 2.36517 17.9414 2.87745 17.9414H21.5567C22.0689 17.9414 22.3249 17.9414 22.4272 18.1187C22.5296 18.2961 22.4057 18.5105 22.158 18.9392C20.5152 21.7827 17.9408 24.0671 14.439 25.408Z" fill="#78B8FA"/>
</g>
</svg>
