<svg width="29" height="29" viewBox="0 0 29 29" fill="none" xmlns="http://www.w3.org/2000/svg">
<path opacity="0.4" d="M9.16737 2.87767C10.5762 2.14776 12.1916 1.47656 14.1786 1.47656C16.1656 1.47656 17.7815 2.14778 19.1912 2.87766C19.617 3.09817 20.0126 3.3163 20.3908 3.52476C21.3162 4.03495 22.1365 4.48717 23.037 4.77436C23.5655 4.94291 24.0338 5.09224 24.3657 5.22229C24.6783 5.3447 25.0497 5.51246 25.3132 5.8053C25.5501 6.06836 25.6717 6.36372 25.7523 6.64622C25.8255 6.90268 25.8881 7.24992 25.9481 7.58302C27.4115 15.6967 24.2155 23.3838 16.4035 26.375C15.6355 26.669 15.07 26.8857 14.1825 26.8857C13.2948 26.8857 12.7293 26.669 11.9614 26.375C4.14903 23.3839 0.949857 15.697 2.41288 7.58308C2.4729 7.25002 2.53545 6.90286 2.60864 6.64643C2.68927 6.36394 2.81088 6.06861 3.04757 5.80555C3.31107 5.51271 3.68246 5.3449 3.99495 5.22245C4.32696 5.09235 4.79521 4.94295 5.32384 4.7743C6.22386 4.48713 7.04342 4.03503 7.96813 3.52493C8.34608 3.31643 8.74161 3.09824 9.16737 2.87767Z" fill="#88E5BE"/>
<path fill-rule="evenodd" clip-rule="evenodd" d="M14.1825 20.0916C17.446 20.0916 20.0916 17.446 20.0916 14.1825C20.0916 10.919 17.446 8.27344 14.1825 8.27344C10.919 8.27344 8.27344 10.919 8.27344 14.1825C8.27344 17.446 10.919 20.0916 14.1825 20.0916ZM16.8421 13.2456C17.3035 13.0821 17.5452 12.5756 17.3817 12.1141C17.2183 11.6527 16.7117 11.4111 16.2502 11.5745C15.6805 11.7763 15.1515 12.1543 14.7038 12.5469C14.2471 12.9475 13.8236 13.4093 13.4672 13.8366C13.2944 14.0437 13.1348 14.2456 12.9922 14.433C12.888 14.3355 12.7835 14.253 12.6798 14.1839C12.6586 14.1698 12.6374 14.155 12.6158 14.1399C12.4466 14.022 12.253 13.8873 11.8189 13.8873C11.3294 13.8873 10.9325 14.2842 10.9325 14.7737C10.9325 15.2165 11.2573 15.5836 11.6817 15.6495C11.6859 15.652 11.6909 15.6551 11.6965 15.6589C11.7624 15.7028 11.9651 15.8661 12.2079 16.3519C12.3508 16.6376 12.6364 16.8244 12.9553 16.8407C13.2743 16.857 13.5777 16.7 13.749 16.4305C13.9414 16.1579 14.5087 15.3554 14.8284 14.9721C15.1497 14.5869 15.5084 14.1993 15.8728 13.8797C16.2463 13.5521 16.5776 13.3392 16.8421 13.2456Z" fill="#88E5BE"/>
</svg>
