<svg width="32" height="32" viewBox="0 0 32 32" fill="none" xmlns="http://www.w3.org/2000/svg">
<path opacity="0.4" d="M23.0264 3.09651C24.7667 3.56014 26.1701 3.93403 27.2343 4.37577C28.3391 4.83433 29.2185 5.42025 29.782 6.39071C30.346 7.36201 30.4169 8.41454 30.2636 9.5975C30.1161 10.7358 29.7399 12.1321 29.2737 13.8616L27.8713 19.0656C27.4053 20.7954 27.0291 22.1916 26.5845 23.2507C26.1224 24.3515 25.5324 25.226 24.5579 25.7855C23.5841 26.3446 22.5295 26.415 21.3421 26.2628C20.1985 26.1163 18.7951 25.7424 17.0549 25.2787L15.6415 24.902C13.9012 24.4384 12.4978 24.0646 11.4336 23.6228C10.3288 23.1643 9.44925 22.5783 8.88579 21.6079C8.32183 20.6366 8.25093 19.584 8.40424 18.4011C8.55175 17.2628 8.92803 15.8666 9.39413 14.137L10.7965 8.9329C11.2625 7.20318 11.6388 5.8069 12.0833 4.74789C12.5454 3.64713 13.1355 2.7725 14.11 2.21302C15.0837 1.65402 16.1384 1.5836 17.3257 1.73574C18.4693 1.88229 19.8728 2.25622 21.6131 2.71993L23.0264 3.09651Z" fill="white"/>
<path d="M22.666 9.33398C22.666 10.4386 21.7705 11.334 20.666 11.334C19.5615 11.334 18.666 10.4386 18.666 9.33398C18.666 8.22941 19.5615 7.33398 20.666 7.33398C21.7705 7.33398 22.666 8.22941 22.666 9.33398Z" fill="white"/>
<path fill-rule="evenodd" clip-rule="evenodd" d="M8.56561 7.95541C8.77453 8.66153 8.37145 9.40332 7.66534 9.61222C5.54839 10.2385 4.89423 10.6662 4.5726 11.2201C4.36707 11.5741 4.26476 12.0405 4.38182 12.9636C4.50384 13.9259 4.83163 15.1672 5.31859 16.9949L6.6684 22.0612C7.15539 23.8891 7.48867 25.1288 7.86132 26.0233C8.2189 26.8817 8.53858 27.232 8.88955 27.4335C9.24164 27.6356 9.70944 27.7363 10.6389 27.6145C11.6059 27.488 12.8538 27.1547 14.6887 26.6601L15.3189 26.4904C16.03 26.2988 16.7617 26.7199 16.9533 27.4308C17.1449 28.1419 16.7239 28.8736 16.0128 29.0652L15.2921 29.2593C13.5705 29.7233 12.1498 30.1061 10.985 30.2587C9.76235 30.4187 8.62383 30.3557 7.56188 29.7461C6.49883 29.1359 5.87288 28.1847 5.39972 27.0488C4.9496 25.9684 4.5724 24.5524 4.1159 22.8389L2.71758 17.5905C2.26095 15.8768 1.88368 14.4609 1.73634 13.299C1.5814 12.0774 1.65099 10.9412 2.26647 9.88116C3.18115 8.30577 4.87172 7.65781 6.9088 7.05513C7.61492 6.84622 8.35671 7.24929 8.56561 7.95541Z" fill="white"/>
</svg>
