<svg width="20" height="19" viewBox="0 0 20 19" fill="none" xmlns="http://www.w3.org/2000/svg">
<path opacity="0.8" d="M4.40547 0.197527C4.88621 0.296884 5.26906 0.619878 5.50693 1.04662L6.26467 2.40603C6.54378 2.90671 6.77866 3.32807 6.93204 3.69436C7.09476 4.0829 7.1914 4.46606 7.14722 4.88968C7.10304 5.31331 6.92943 5.66828 6.69006 6.0149C6.46439 6.34166 6.14762 6.70549 5.77122 7.13783L4.65735 8.41731C4.45775 8.64653 4.35795 8.76114 4.34883 8.90442C4.33971 9.0477 4.4215 9.17012 4.58509 9.41486C5.97941 11.501 7.85858 13.3808 9.94639 14.7763C10.1912 14.94 10.3136 15.0218 10.4568 15.0126C10.6001 15.0035 10.7148 14.9037 10.944 14.7041L12.2236 13.5902C12.6559 13.2138 13.0197 12.897 13.3465 12.6714C13.6931 12.432 14.0481 12.2583 14.4717 12.2142C14.8953 12.17 15.2785 12.2666 15.667 12.4293C16.0333 12.5827 16.4546 12.8176 16.9552 13.0966L18.3148 13.8544C18.7415 14.0923 19.0645 14.4752 19.1639 14.9559C19.2642 15.4417 19.1162 15.9299 18.7891 16.3312C17.6023 17.7872 15.701 18.7144 13.7064 18.312C12.4804 18.0646 11.2706 17.6526 9.80752 16.8135C6.86771 15.1275 4.23187 12.4902 2.54786 9.5539C1.70876 8.09078 1.29672 6.88106 1.04939 5.655C0.64703 3.66038 1.57411 1.75903 3.03017 0.572286C3.43146 0.24522 3.91971 0.0971265 4.40547 0.197527Z" fill="#EC009D"/>
</svg>
