<svg width="489" height="360" viewBox="0 0 489 360" fill="none" xmlns="http://www.w3.org/2000/svg">
<g filter="url(#filter0_b_6039_2591)">
<rect x="93.2207" y="0.344727" width="395.779" height="277.612" rx="12" fill="url(#paint0_linear_6039_2591)" fill-opacity="0.16"/>
<rect x="93.6254" y="0.749409" width="394.97" height="276.803" rx="11.5953" stroke="url(#paint1_linear_6039_2591)" stroke-width="0.809365"/>
</g>
<g filter="url(#filter1_b_6039_2591)">
<rect x="51.1328" y="42.4316" width="395.779" height="277.612" rx="12" fill="url(#paint2_linear_6039_2591)" fill-opacity="0.16"/>
<rect x="51.5375" y="42.8363" width="394.97" height="276.803" rx="11.5953" stroke="url(#paint3_linear_6039_2591)" stroke-width="0.809365"/>
<rect x="62.4648" y="151.695" width="225.813" height="18.6154" rx="9.30769" fill="#CAD1E9"/>
<rect x="77.8438" y="67.5215" width="210.435" height="18.6154" rx="9.30769" fill="#CAD1E9"/>
<rect opacity="0.4" x="77.8438" y="181.641" width="280.849" height="18.6154" rx="9.30769" fill="#CAD1E9"/>
<rect opacity="0.4" x="54.3711" y="211.588" width="304.321" height="18.6154" rx="9.30769" fill="#CAD1E9"/>
<path fill-rule="evenodd" clip-rule="evenodd" d="M101.44 298.291C101.887 298.291 102.25 298.653 102.25 299.1V300.314C102.25 300.761 101.887 301.124 101.44 301.124C100.993 301.124 100.631 300.761 100.631 300.314V299.1C100.631 298.653 100.993 298.291 101.44 298.291ZM96.7972 300.147C97.1133 299.831 97.6257 299.831 97.9418 300.147L98.7512 300.956C99.0672 301.272 99.0672 301.785 98.7512 302.101C98.4351 302.417 97.9226 302.417 97.6066 302.101L96.7972 301.291C96.4811 300.975 96.4811 300.463 96.7972 300.147ZM106.035 300.147C106.352 300.463 106.352 300.975 106.035 301.291L105.226 302.101C104.91 302.417 104.398 302.417 104.081 302.101C103.765 301.785 103.765 301.272 104.081 300.956L104.891 300.147C105.207 299.831 105.719 299.831 106.035 300.147ZM94.9414 304.79C94.9414 304.343 95.3038 303.981 95.7508 303.981H96.9648C97.4118 303.981 97.7742 304.343 97.7742 304.79C97.7742 305.237 97.4118 305.599 96.9648 305.599H95.7508C95.3038 305.599 94.9414 305.237 94.9414 304.79ZM98.7512 307.431C99.0672 307.747 99.0672 308.26 98.7512 308.576L97.9418 309.385C97.6257 309.701 97.1133 309.701 96.7972 309.385C96.4811 309.069 96.4811 308.557 96.7972 308.24L97.6066 307.431C97.9226 307.115 98.4351 307.115 98.7512 307.431Z" fill="#CAD1E9"/>
<path d="M112.312 306.938C112.42 307.08 112.547 307.297 112.545 307.569C112.541 308.229 112.091 308.681 111.654 308.966C111.205 309.26 110.629 309.476 110.068 309.644C109.5 309.813 108.904 309.944 108.395 310.049C108.041 310.122 107.412 310.25 107.231 310.301C106.934 310.384 106.874 310.438 106.854 310.459C106.832 310.483 106.779 310.556 106.71 310.873L106.707 310.885C106.381 312.369 106.124 313.535 105.85 314.33C105.713 314.727 105.554 315.086 105.345 315.357C105.125 315.643 104.811 315.875 104.39 315.894C104.113 315.906 103.89 315.78 103.749 315.675C103.599 315.564 103.463 315.418 103.341 315.265C103.095 314.959 102.842 314.54 102.593 314.065C102.092 313.107 101.563 311.828 101.117 310.514C100.671 309.202 100.297 307.829 100.117 306.683C100.027 306.112 99.9816 305.575 100.007 305.119C100.031 304.695 100.121 304.208 100.432 303.873C100.752 303.528 101.24 303.411 101.667 303.37C102.123 303.326 102.662 303.356 103.233 303.431C104.381 303.581 105.761 303.929 107.084 304.354C108.407 304.78 109.699 305.294 110.671 305.787C111.154 306.033 111.579 306.284 111.893 306.53C112.049 306.652 112.197 306.789 112.312 306.938Z" fill="#CAD1E9"/>
</g>
<rect x="25.2344" y="265.007" width="72.8428" height="34.8027" rx="12" fill="#ED5959"/>
<rect x="25.6391" y="265.412" width="72.0334" height="33.9933" rx="11.5953" stroke="white" stroke-opacity="0.17" stroke-width="0.809365"/>
<path d="M46.2399 287.408H43.1909V277.99H46.3364C47.2592 277.99 48.0517 278.179 48.7139 278.556C49.3762 278.93 49.8835 279.468 50.2361 280.17C50.5917 280.869 50.7695 281.707 50.7695 282.685C50.7695 283.666 50.5902 284.51 50.2315 285.215C49.8759 285.92 49.3608 286.462 48.6864 286.843C48.0119 287.22 47.1964 287.408 46.2399 287.408ZM44.6119 286.167H46.1617C46.8791 286.167 47.4754 286.032 47.9506 285.762C48.4258 285.489 48.7814 285.095 49.0175 284.58C49.2535 284.062 49.3716 283.43 49.3716 282.685C49.3716 281.947 49.2535 281.32 49.0175 280.805C48.7845 280.289 48.4365 279.899 47.9736 279.632C47.5106 279.365 46.9358 279.232 46.2491 279.232H44.6119V286.167ZM55.0658 287.551C54.3699 287.551 53.7706 287.402 53.2678 287.105C52.768 286.804 52.3818 286.383 52.1089 285.84C51.8391 285.294 51.7042 284.655 51.7042 283.922C51.7042 283.199 51.8391 282.561 52.1089 282.009C52.3818 281.458 52.7619 281.027 53.2494 280.717C53.7399 280.408 54.3132 280.253 54.9693 280.253C55.3678 280.253 55.7541 280.319 56.1281 280.45C56.5022 280.582 56.8379 280.789 57.1352 281.071C57.4326 281.353 57.6672 281.72 57.8388 282.17C58.0105 282.618 58.0964 283.162 58.0964 283.803V284.29H52.4814V283.26H56.749C56.749 282.898 56.6754 282.578 56.5282 282.299C56.3811 282.017 56.1741 281.795 55.9074 281.632C55.6437 281.47 55.3341 281.389 54.9785 281.389C54.5922 281.389 54.2549 281.484 53.9668 281.674C53.6816 281.861 53.4609 282.106 53.3046 282.409C53.1513 282.71 53.0746 283.036 53.0746 283.389V284.194C53.0746 284.666 53.1574 285.067 53.323 285.399C53.4916 285.73 53.7261 285.983 54.0265 286.157C54.327 286.329 54.678 286.415 55.0796 286.415C55.3402 286.415 55.5778 286.378 55.7924 286.305C56.007 286.228 56.1925 286.114 56.3489 285.964C56.5052 285.814 56.6248 285.629 56.7076 285.408L58.009 285.642C57.9048 286.026 57.7177 286.361 57.448 286.649C57.1812 286.935 56.8455 287.157 56.4408 287.316C56.0392 287.473 55.5809 287.551 55.0658 287.551ZM60.5923 277.99V287.408H59.2173V277.99H60.5923ZM65.0817 287.551C64.3858 287.551 63.7864 287.402 63.2837 287.105C62.7839 286.804 62.3976 286.383 62.1248 285.84C61.855 285.294 61.7201 284.655 61.7201 283.922C61.7201 283.199 61.855 282.561 62.1248 282.009C62.3976 281.458 62.7778 281.027 63.2653 280.717C63.7558 280.408 64.3291 280.253 64.9852 280.253C65.3837 280.253 65.77 280.319 66.144 280.45C66.518 280.582 66.8537 280.789 67.1511 281.071C67.4485 281.353 67.683 281.72 67.8547 282.17C68.0264 282.618 68.1122 283.162 68.1122 283.803V284.29H62.4973V283.26H66.7648C66.7648 282.898 66.6913 282.578 66.5441 282.299C66.3969 282.017 66.19 281.795 65.9233 281.632C65.6596 281.47 65.35 281.389 64.9944 281.389C64.6081 281.389 64.2708 281.484 63.9827 281.674C63.6975 281.861 63.4768 282.106 63.3204 282.409C63.1672 282.71 63.0905 283.036 63.0905 283.389V284.194C63.0905 284.666 63.1733 285.067 63.3388 285.399C63.5075 285.73 63.742 285.983 64.0424 286.157C64.3429 286.329 64.6939 286.415 65.0955 286.415C65.3561 286.415 65.5937 286.378 65.8083 286.305C66.0229 286.228 66.2084 286.114 66.3648 285.964C66.5211 285.814 66.6407 285.629 66.7235 285.408L68.0249 285.642C67.9206 286.026 67.7336 286.361 67.4638 286.649C67.1971 286.935 66.8614 287.157 66.4567 287.316C66.0551 287.473 65.5968 287.551 65.0817 287.551ZM72.5304 280.345V281.448H68.6721V280.345H72.5304ZM69.7068 278.652H71.0818V285.334C71.0818 285.601 71.1217 285.802 71.2014 285.937C71.2811 286.068 71.3838 286.159 71.5095 286.208C71.6383 286.254 71.7778 286.277 71.928 286.277C72.0384 286.277 72.1349 286.269 72.2177 286.254C72.3005 286.239 72.3649 286.226 72.4108 286.217L72.6592 287.353C72.5795 287.384 72.466 287.414 72.3189 287.445C72.1717 287.479 71.9878 287.497 71.767 287.5C71.4053 287.506 71.068 287.442 70.7553 287.307C70.4426 287.172 70.1897 286.964 69.9966 286.682C69.8034 286.4 69.7068 286.045 69.7068 285.619V278.652ZM76.6152 287.551C75.9192 287.551 75.3199 287.402 74.8171 287.105C74.3174 286.804 73.9311 286.383 73.6582 285.84C73.3884 285.294 73.2536 284.655 73.2536 283.922C73.2536 283.199 73.3884 282.561 73.6582 282.009C73.9311 281.458 74.3112 281.027 74.7987 280.717C75.2892 280.408 75.8625 280.253 76.5186 280.253C76.9172 280.253 77.3034 280.319 77.6775 280.45C78.0515 280.582 78.3872 280.789 78.6846 281.071C78.982 281.353 79.2165 281.72 79.3882 282.17C79.5599 282.618 79.6457 283.162 79.6457 283.803V284.29H74.0307V283.26H78.2983C78.2983 282.898 78.2247 282.578 78.0776 282.299C77.9304 282.017 77.7235 281.795 77.4567 281.632C77.1931 281.47 76.8834 281.389 76.5278 281.389C76.1415 281.389 75.8043 281.484 75.5161 281.674C75.231 281.861 75.0102 282.106 74.8539 282.409C74.7006 282.71 74.624 283.036 74.624 283.389V284.194C74.624 284.666 74.7067 285.067 74.8723 285.399C75.0409 285.73 75.2754 285.983 75.5759 286.157C75.8763 286.329 76.2274 286.415 76.629 286.415C76.8896 286.415 77.1272 286.378 77.3418 286.305C77.5564 286.228 77.7418 286.114 77.8982 285.964C78.0546 285.814 78.1741 285.629 78.2569 285.408L79.5583 285.642C79.4541 286.026 79.2671 286.361 78.9973 286.649C78.7306 286.935 78.3949 287.157 77.9902 287.316C77.5886 287.473 77.1302 287.551 76.6152 287.551Z" fill="white"/>
<g filter="url(#filter2_d_6039_2591)">
<rect x="5" y="141.983" width="97.9331" height="97.9331" rx="12" fill="#0B1023"/>
<path opacity="0.4" fill-rule="evenodd" clip-rule="evenodd" d="M39.3477 180.783C39.3477 178.324 41.3407 176.331 43.7992 176.331C46.2577 176.331 48.2507 178.324 48.2507 180.783C48.2507 183.241 46.2577 185.234 43.7992 185.234C41.3407 185.234 39.3477 183.241 39.3477 180.783Z" fill="#3569CF"/>
<path opacity="0.4" d="M76.7188 192.919C72.385 190.124 68.2563 188.953 64.3047 189.118C60.3713 189.282 56.8346 190.761 53.6531 192.888C48.2702 196.487 43.5358 202.229 39.2968 207.371C38.6257 208.185 37.967 208.984 37.3202 209.757L35.4531 211.388L38.1752 213.242C40.0987 214.039 42.3484 214.388 44.9337 214.557C47.509 214.727 50.6109 214.727 54.2997 214.727H54.5392C59.3824 214.727 63.2434 214.727 66.2707 214.32C69.3965 213.899 71.9646 213.009 73.9954 210.978C75.7749 209.199 76.6845 207.015 77.1642 204.384C77.6314 201.821 77.7188 198.661 77.7382 194.801L77.7444 193.58L76.7188 192.919Z" fill="#3569CF"/>
<path fill-rule="evenodd" clip-rule="evenodd" d="M54.2046 167.983H54.5362C59.3792 167.983 63.2405 167.983 66.2677 168.39C69.3936 168.811 71.9616 169.701 73.9924 171.732C76.0232 173.763 76.9137 176.331 77.3339 179.457C77.7408 182.484 77.7408 186.345 77.7408 191.188V191.519C77.7408 196.363 77.7408 200.224 77.3339 203.251C76.9137 206.377 76.0232 208.945 73.9924 210.976C71.9616 213.007 69.3936 213.897 66.2677 214.317C63.2403 214.724 59.3792 214.724 54.536 214.724H54.2048C49.3615 214.724 45.5004 214.724 42.4731 214.317C39.3473 213.897 36.7792 213.007 34.7485 210.976C32.7177 208.945 31.8272 206.377 31.4069 203.251C30.9999 200.224 31 196.363 31 191.52V191.188C31 186.345 30.9999 182.484 31.4069 179.457C31.8272 176.331 32.7177 173.763 34.7485 171.732C36.7792 169.701 39.3473 168.811 42.4731 168.39C45.5004 167.983 49.3615 167.983 54.2046 167.983ZM43.0663 172.802C40.4341 173.156 38.962 173.814 37.8962 174.88C36.8304 175.945 36.1726 177.417 35.8187 180.05C35.4562 182.746 35.4515 186.307 35.4515 191.354C35.4515 196.4 35.4562 199.962 35.8187 202.658C36.1726 205.29 36.8304 206.762 37.8962 207.828C38.962 208.894 40.4341 209.552 43.0663 209.905C45.7625 210.268 49.3236 210.273 54.3704 210.273C59.4171 210.273 62.9783 210.268 65.6746 209.905C68.3067 209.552 69.7788 208.894 70.8448 207.828C71.9104 206.762 72.5682 205.29 72.922 202.658C73.2846 199.962 73.2893 196.4 73.2893 191.354C73.2893 186.307 73.2846 182.746 72.922 180.05C72.5682 177.417 71.9104 175.945 70.8448 174.88C69.7788 173.814 68.3067 173.156 65.6746 172.802C62.9783 172.44 59.4171 172.435 54.3704 172.435C49.3236 172.435 45.7625 172.44 43.0663 172.802Z" fill="#3569CF"/>
</g>
<g filter="url(#filter3_d_6039_2591)">
<rect x="371.643" y="257.723" width="97.9331" height="97.9331" rx="12" fill="#0B1023"/>
<path opacity="0.4" d="M412.261 299.953C415.055 299.825 417.892 299.758 421.013 299.758C424.134 299.758 426.972 299.825 429.766 299.953C433.791 300.138 437.06 303.255 437.591 307.201C437.881 309.353 438.128 311.614 438.128 313.939C438.128 316.263 437.881 318.524 437.591 320.676C437.06 324.622 433.791 327.739 429.766 327.924C426.972 328.052 424.134 328.119 421.013 328.119C417.892 328.119 415.055 328.052 412.261 327.924C408.235 327.739 404.967 324.622 404.435 320.676C404.146 318.524 403.898 316.263 403.898 313.939C403.898 311.614 404.146 309.353 404.435 307.201C404.967 303.255 408.235 300.138 412.261 299.953Z" fill="#236936"/>
<path fill-rule="evenodd" clip-rule="evenodd" d="M417.403 307.582C416.202 307.582 415.044 308.317 414.651 309.535L411.794 318.378C411.545 319.149 411.968 319.976 412.739 320.225C413.51 320.474 414.337 320.051 414.586 319.28L415.206 317.362H419.6L420.22 319.28C420.469 320.051 421.296 320.474 422.067 320.225C422.838 319.976 423.261 319.149 423.012 318.378L420.155 309.535C419.761 308.317 418.604 307.582 417.403 307.582ZM416.154 314.427L417.404 310.56L418.653 314.427H416.154Z" fill="#236936"/>
<path d="M428.348 309.049C428.348 308.239 427.691 307.582 426.881 307.582C426.071 307.582 425.414 308.239 425.414 309.049V318.829C425.414 319.639 426.071 320.296 426.881 320.296C427.691 320.296 428.348 319.639 428.348 318.829V309.049Z" fill="#236936"/>
<path d="M414.168 296.824C414.168 293.043 417.233 289.978 421.014 289.978C424.795 289.978 427.86 293.043 427.86 296.824V299.876C428.499 299.899 429.134 299.924 429.766 299.954C430.461 299.985 431.132 300.105 431.771 300.3V296.824C431.771 290.883 426.955 286.066 421.014 286.066C415.072 286.066 410.256 290.883 410.256 296.824V300.3C410.895 300.105 411.567 299.985 412.261 299.954C412.894 299.924 413.528 299.899 414.168 299.876V296.824Z" fill="#236936"/>
</g>
<defs>
<filter id="filter0_b_6039_2591" x="83.7511" y="-9.12484" width="414.718" height="296.551" filterUnits="userSpaceOnUse" color-interpolation-filters="sRGB">
<feFlood flood-opacity="0" result="BackgroundImageFix"/>
<feGaussianBlur in="BackgroundImageFix" stdDeviation="4.73478"/>
<feComposite in2="SourceAlpha" operator="in" result="effect1_backgroundBlur_6039_2591"/>
<feBlend mode="normal" in="SourceGraphic" in2="effect1_backgroundBlur_6039_2591" result="shape"/>
</filter>
<filter id="filter1_b_6039_2591" x="-23.0859" y="-31.7871" width="544.217" height="426.049" filterUnits="userSpaceOnUse" color-interpolation-filters="sRGB">
<feFlood flood-opacity="0" result="BackgroundImageFix"/>
<feGaussianBlur in="BackgroundImageFix" stdDeviation="37.1094"/>
<feComposite in2="SourceAlpha" operator="in" result="effect1_backgroundBlur_6039_2591"/>
<feBlend mode="normal" in="SourceGraphic" in2="effect1_backgroundBlur_6039_2591" result="shape"/>
</filter>
<filter id="filter2_d_6039_2591" x="0.953177" y="137.937" width="106.027" height="106.027" filterUnits="userSpaceOnUse" color-interpolation-filters="sRGB">
<feFlood flood-opacity="0" result="BackgroundImageFix"/>
<feColorMatrix in="SourceAlpha" type="matrix" values="0 0 0 0 0 0 0 0 0 0 0 0 0 0 0 0 0 0 127 0" result="hardAlpha"/>
<feMorphology radius="4.04682" operator="dilate" in="SourceAlpha" result="effect1_dropShadow_6039_2591"/>
<feOffset/>
<feComposite in2="hardAlpha" operator="out"/>
<feColorMatrix type="matrix" values="0 0 0 0 1 0 0 0 0 1 0 0 0 0 1 0 0 0 0.11 0"/>
<feBlend mode="normal" in2="BackgroundImageFix" result="effect1_dropShadow_6039_2591"/>
<feBlend mode="normal" in="SourceGraphic" in2="effect1_dropShadow_6039_2591" result="shape"/>
</filter>
<filter id="filter3_d_6039_2591" x="367.596" y="253.676" width="106.027" height="106.027" filterUnits="userSpaceOnUse" color-interpolation-filters="sRGB">
<feFlood flood-opacity="0" result="BackgroundImageFix"/>
<feColorMatrix in="SourceAlpha" type="matrix" values="0 0 0 0 0 0 0 0 0 0 0 0 0 0 0 0 0 0 127 0" result="hardAlpha"/>
<feMorphology radius="4.04682" operator="dilate" in="SourceAlpha" result="effect1_dropShadow_6039_2591"/>
<feOffset/>
<feComposite in2="hardAlpha" operator="out"/>
<feColorMatrix type="matrix" values="0 0 0 0 1 0 0 0 0 1 0 0 0 0 1 0 0 0 0.11 0"/>
<feBlend mode="normal" in2="BackgroundImageFix" result="effect1_dropShadow_6039_2591"/>
<feBlend mode="normal" in="SourceGraphic" in2="effect1_dropShadow_6039_2591" result="shape"/>
</filter>
<linearGradient id="paint0_linear_6039_2591" x1="126" y1="0.344704" x2="541.899" y2="109.399" gradientUnits="userSpaceOnUse">
<stop stop-color="#0084FF"/>
<stop offset="0.438035" stop-color="#FFAB90"/>
<stop offset="1" stop-color="#FD8AC8"/>
</linearGradient>
<linearGradient id="paint1_linear_6039_2591" x1="87.9599" y1="4.39152" x2="361.777" y2="382.419" gradientUnits="userSpaceOnUse">
<stop stop-color="#2D2E48"/>
<stop offset="1" stop-color="white" stop-opacity="0.06"/>
</linearGradient>
<linearGradient id="paint2_linear_6039_2591" x1="372.451" y1="78.0437" x2="207.572" y2="396.379" gradientUnits="userSpaceOnUse">
<stop stop-color="#1B1C36"/>
<stop offset="1" stop-color="#00000B"/>
</linearGradient>
<linearGradient id="paint3_linear_6039_2591" x1="51.1328" y1="320.044" x2="489.081" y2="209.511" gradientUnits="userSpaceOnUse">
<stop offset="0.362307" stop-color="#2C2D47"/>
<stop offset="1" stop-color="white" stop-opacity="0.07"/>
</linearGradient>
</defs>
</svg>
