<svg width="305" height="320" viewBox="0 0 305 320" fill="none" xmlns="http://www.w3.org/2000/svg">
<path fill-rule="evenodd" clip-rule="evenodd" d="M152.485 0.09375C127.478 0.09375 107.145 8.54186 89.4125 17.7288C84.054 20.5048 79.076 23.2509 74.3193 25.875C62.6804 32.2956 52.364 37.9863 41.0356 41.6008C34.3822 43.7236 28.4884 45.604 24.3096 47.2416C20.3763 48.7827 15.702 50.8949 12.3853 54.5807C9.40614 57.8918 7.87566 61.6089 6.86088 65.1644C5.93967 68.392 5.15219 72.7615 4.39684 76.9536C-14.0176 179.08 26.249 275.832 124.58 313.479C134.244 317.18 141.363 319.906 152.534 319.906C163.707 319.906 170.825 317.18 180.489 313.479C278.817 275.83 319.044 179.076 300.624 76.9529C299.868 72.7604 299.08 68.3898 298.159 65.1621C297.143 61.6062 295.613 57.8886 292.633 54.5776C289.316 50.8917 284.642 48.7802 280.708 47.2395C276.529 45.6025 270.636 43.7232 263.982 41.6015C252.649 37.9869 242.324 32.295 230.676 25.8735C225.917 23.25 220.936 20.5037 215.578 17.7287C197.835 8.54201 177.495 0.09375 152.485 0.09375ZM115.313 110.727V126.519C114.195 126.858 113.085 127.264 111.982 127.754C102.757 131.848 95.6617 139.587 92.0136 149.022C90.4383 153.098 89.8327 157.282 89.5518 161.694C89.2813 165.941 89.2813 171.113 89.2815 177.313V178.015C89.2813 184.214 89.2813 189.387 89.5518 193.634C89.8327 198.046 90.4383 202.232 92.0136 206.306C95.6617 215.743 102.757 223.481 111.982 227.574C116.033 229.373 120.18 230.051 124.428 230.362C128.468 230.656 133.364 230.656 139.096 230.656H165.904C171.638 230.656 176.532 230.656 180.572 230.362C184.821 230.051 188.968 229.373 193.018 227.574C202.244 223.481 209.339 215.743 212.986 206.306C214.562 202.232 215.167 198.046 215.448 193.634C215.719 189.387 215.719 184.214 215.719 178.015V177.313C215.719 171.113 215.719 165.941 215.448 161.694C215.167 157.282 214.562 153.098 212.986 149.022C209.339 139.587 202.244 131.848 193.018 127.754C191.916 127.264 190.805 126.858 189.688 126.519V110.727C189.688 90.323 172.653 74.4688 152.5 74.4688C132.348 74.4688 115.313 90.323 115.313 110.727ZM152.5 96.7812C143.9 96.7812 137.625 103.404 137.625 110.727V124.672L139.096 124.672H165.904L167.375 124.672V110.727C167.375 103.404 161.101 96.7812 152.5 96.7812Z" fill="#0084FF"/>
</svg>
