<svg width="29" height="29" viewBox="0 0 29 29" fill="none" xmlns="http://www.w3.org/2000/svg">
<path d="M21.0761 17.5672C21.2136 17.649 21.3834 17.7448 21.5757 17.8533C22.4181 18.3285 23.6915 19.047 24.5639 19.9008C25.1094 20.4349 25.6279 21.1387 25.7221 22.0009C25.8223 22.9178 25.4224 23.7783 24.6198 24.5428C23.2354 25.8617 21.574 26.9187 19.4251 26.9187H9.00354C6.85464 26.9187 5.19325 25.8617 3.80881 24.5428C3.00635 23.7783 2.60634 22.9178 2.70657 22.0009C2.80081 21.1387 3.31922 20.4349 3.86483 19.9008C4.7372 19.047 6.01062 18.3285 6.85305 17.8533C7.04528 17.745 7.21509 17.649 7.35254 17.5672C11.5528 15.0661 16.8759 15.0661 21.0761 17.5672Z" fill="#4770FF"/>
<path opacity="0.4" d="M8.00977 7.71431C8.00977 4.28763 10.7876 1.50977 14.2143 1.50977C17.641 1.50977 20.4189 4.28763 20.4189 7.71431C20.4189 11.141 17.641 13.9189 14.2143 13.9189C10.7876 13.9189 8.00977 11.141 8.00977 7.71431Z" fill="#4770FF"/>
</svg>
